Coordinates
version=1
nRows=19
nColumns=34
inDegrees=yes

Units are S.I. units (second, meters, Newtons, ...)
If the header above contains a line with 'inDegrees', this indicates whether rotational values are in degrees (yes) or radians (no).

endheader
time	pelvis_tilt	pelvis_list	pelvis_rotation	pelvis_tx	pelvis_ty	pelvis_tz	hip_flexion_r	hip_adduction_r	hip_rotation_r	knee_angle_r	ankle_angle_r	subtalar_angle_r	mtp_angle_r	hip_flexion_l	hip_adduction_l	hip_rotation_l	knee_angle_l	ankle_angle_l	subtalar_angle_l	mtp_angle_l	lumbar_extension	lumbar_bending	lumbar_rotation	arm_flex_r	arm_add_r	arm_rot_r	elbow_flex_r	pro_sup_r	arm_flex_l	arm_add_l	arm_rot_l	elbow_flex_l	pro_sup_l
     16.25833330	      1.56032139	     -5.68613817	   -172.58576526	      0.07575765	      1.09175390	      0.15797182	     44.06146186	     -5.05240738	     -0.40786105	     39.88200243	     -8.11330017	    -11.97379365	      0.00000000	    -22.43920708	      5.34407609	      3.97048822	     37.12492738	    -24.90569471	    -15.46762931	      0.00000000	    -15.74246572	     -9.26716744	    -25.91984553	    -35.49034033	    -17.29439534	      1.96471211	    102.14344748	     93.89330713	     21.45763739	    -27.50649319	     15.72806122	    109.66734796	     81.06911900
     16.26666670	      0.26758363	     -6.64135924	   -172.85268141	      0.07505343	      1.09585560	      0.15851560	     40.57742923	     -5.74578902	     -0.77202773	     32.03878480	     -9.80403230	     -8.56401199	      0.00000000	    -23.94476307	      6.06124460	      4.31158897	     40.69757980	    -25.02064206	    -19.85452357	      0.00000000	    -17.07521854	     -9.86502643	    -25.79269235	    -35.61940297	    -16.34913486	      1.09985008	    102.89527251	     94.52278800	     22.46504226	    -27.56725393	     17.04045247	    109.35858371	     80.43900220
     16.27500000	     -0.91700398	     -7.62093932	   -173.06741620	      0.07425938	      1.09862481	      0.15904080	     37.20579005	     -6.52522010	     -1.41515790	     24.96169632	    -11.01157393	     -4.64480492	      0.00000000	    -25.02371392	      6.82310295	      4.64877655	     44.92744646	    -25.02198247	    -23.39370391	      0.00000000	    -18.26478174	    -10.39517325	    -25.53426484	    -35.73112639	    -15.35778972	      0.08271351	    103.54935112	     95.17943330	     23.20008767	    -27.52660767	     18.75324751	    109.11876651	     79.70369510
     16.28333330	     -1.96445396	     -8.54788285	   -173.44350174	      0.07375307	      1.09937096	      0.15945571	     34.35525291	     -7.20587929	     -1.85650587	     19.27453134	    -11.67039818	     -0.69574629	      0.00000000	    -25.68315829	      7.67750574	      4.89455477	     49.65962530	    -25.34630056	    -26.19174611	      0.00000000	    -19.31172600	    -10.87155569	    -24.80934282	    -35.81854616	    -14.37265220	     -1.14872548	    104.22178626	     96.10800260	     24.03086629	    -27.36511068	     20.82870408	    108.83191393	     78.53513533
     16.29166670	     -2.69627437	     -9.04549897	   -173.74002526	      0.07357404	      1.09753629	      0.16038926	     32.34322662	     -7.65242307	     -2.32030756	     15.33509822	    -11.66634700	      2.28276367	      0.00000000	    -25.69573030	      8.28702635	      5.18427744	     54.98349650	    -25.73024248	    -28.41672853	      0.00000000	    -19.99487091	    -10.88056622	    -24.30739931	    -35.23201565	    -13.74715837	     -2.07042453	    104.58609354	     96.71424361	     23.96096344	    -27.23114852	     22.32883805	    108.70319750	     77.68952553
     16.30000000	     -3.12531492	     -9.17175772	   -174.23135833	      0.07295105	      1.09455651	      0.16104417	     31.13934917	     -7.59134122	     -2.10393055	     13.04369819	    -11.90630605	      3.65368344	      0.00000000	    -25.13256148	      8.63639196	      5.06356487	     60.61154837	    -25.93801451	    -29.27666502	      0.00000000	    -20.34542081	    -10.51659075	    -23.71924722	    -34.13189721	    -13.62541463	     -2.56072763	    104.83145360	     96.83810711	     23.19695484	    -27.13392566	     23.16847944	    108.53606870	     77.50074267
     16.30833330	     -3.80702111	     -9.20355139	   -174.41035150	      0.07299858	      1.09172898	      0.16176696	     29.79213491	     -7.66311442	     -2.79017238	     11.89974447	    -10.84672696	      5.46361570	      0.00000000	    -24.70644483	      8.71905498	      5.14988989	     66.22678689	    -27.24555080	    -30.46406307	      0.00000000	    -21.15227926	     -9.84546063	    -22.89125893	    -33.16839021	    -13.36242791	     -3.35319438	    105.00562457	     97.30447699	     22.82388850	    -26.92316969	     24.56319673	    108.10754075	     76.77494565
     16.31666670	     -4.24001222	     -9.20600264	   -174.79370781	      0.07378022	      1.08750629	      0.16164962	     28.98326937	     -7.48227896	     -2.62705745	     11.73785816	    -10.15653504	      5.38657274	      0.00000000	    -23.59136537	      8.76046574	      4.74540139	     72.24415157	    -28.10853967	    -30.41053405	      0.00000000	    -21.64615605	     -9.31599048	    -22.00250003	    -31.80633298	    -13.34037906	     -3.76272580	    105.21615985	     97.39831382	     21.70614492	    -26.98931685	     25.34320367	    107.51539463	     76.62167764
     16.32500000	     -4.56888943	     -9.22588804	   -174.91671896	      0.07455287	      1.08304060	      0.16181951	     28.27686645	     -7.42662625	     -2.82405542	     12.30797191	     -9.56674468	      4.98247596	      0.00000000	    -22.05867635	      8.76138842	      4.49410149	     78.35683986	    -29.08232446	    -29.97519009	      0.00000000	    -22.09824897	     -8.69856667	    -21.10290202	    -30.47820899	    -13.33189564	     -4.15668734	    105.27694870	     97.57001799	     20.32116658	    -27.27466095	     26.30476262	    106.55943590	     76.37428141
     16.33333330	     -4.62011557	     -9.30497642	   -175.01689223	      0.07532000	      1.07720261	      0.16208969	     27.91955379	     -7.41910979	     -3.01612658	     13.60397334	     -8.98822938	      3.89957127	      0.00000000	    -19.96833541	      8.65599686	      4.01510766	     84.38598506	    -29.47389230	    -28.94929242	      0.00000000	    -22.24915532	     -8.33267545	    -20.03713124	    -28.98978255	    -13.44717814	     -4.32284602	    105.24427925	     97.90509049	     18.71344108	    -27.65449194	     27.15427177	    105.35305539	     75.97071681
     16.34166670	     -4.68750532	     -9.33309579	   -175.07557012	      0.07597883	      1.07104993	      0.16224425	     27.51516798	     -7.35452453	     -3.19205419	     15.57119277	     -8.23328913	      2.25035698	      0.00000000	    -17.75067248	      8.36097315	      3.49303003	     90.09121727	    -29.49899875	    -27.75369720	      0.00000000	    -22.47515728	     -7.86958627	    -18.95645252	    -27.45900149	    -13.74499455	     -4.38550940	    105.27521947	     98.19563147	     16.65322221	    -28.38923945	     27.62105475	    103.98665252	     75.71321156
     16.35000000	     -4.56497175	     -9.40674940	   -175.26988154	      0.07652063	      1.06358504	      0.16257735	     27.41750791	     -7.28086430	     -3.20900301	     18.25766033	     -7.19531165	      0.16779586	      0.00000000	    -15.20478593	      8.05733524	      2.83570293	     95.47596383	    -28.89337879	    -26.59135086	      0.00000000	    -22.53922000	     -7.61833594	    -17.85987870	    -25.59873298	    -14.45375523	     -3.87280897	    104.85515536	     98.79643192	     13.82075392	    -29.23230485	     27.13477958	    102.74405345	     75.51601557
     16.35833330	     -4.47684129	     -9.36344859	   -175.38147643	      0.07753827	      1.05635030	      0.16295113	     27.08450969	     -7.20799326	     -3.93117669	     21.08736876	     -6.44859190	     -1.45528387	      0.00000000	    -12.58186811	      7.63692707	      2.33313499	    100.61489147	    -27.90079574	    -25.26049926	      0.00000000	    -22.80312704	     -7.10089987	    -16.53433784	    -23.83114359	    -15.25858507	     -3.67683981	    104.99299036	     99.08261086	     11.24155626	    -30.09389503	     26.69091194	    100.93322994	     75.67468629
     16.36666670	     -4.15493692	     -9.31237524	   -175.67515208	      0.07871904	      1.04868739	      0.16257529	     27.19185933	     -7.00222936	     -4.25210093	     24.63102395	     -5.08269317	     -3.54860909	      0.00000000	     -9.52164953	      7.20706699	      1.72135199	    105.41915562	    -26.99981407	    -24.46247413	      0.00000000	    -22.80068057	     -6.90248441	    -15.88461591	    -20.97852005	    -16.45360960	     -2.38830264	    103.99115071	     99.88493181	      7.21712772	    -31.13699880	     24.36934859	     99.55142862	     77.12036747
     16.37500000	     -4.19005788	     -9.08441393	   -175.87148833	      0.08028390	      1.04180757	      0.16235103	     27.03956871	     -6.62709729	     -4.46075336	     28.82012240	     -3.23152929	     -6.05569850	      0.00000000	     -6.55279532	      6.68876820	      1.38860174	    109.92979646	    -25.80583299	    -23.47482742	      0.00000000	    -23.42395919	     -6.19981704	    -13.98251998	    -19.19125869	    -17.56516129	     -2.32369100	    104.65597847	     99.99236445	      5.28094890	    -31.49432496	     23.68478668	     96.75882128	     77.50983174
     16.38333330	     -3.96728309	     -8.59909751	   -176.29009119	      0.08155472	      1.03533005	      0.16149180	     26.98177783	     -5.78744628	     -4.39578008	     32.89535718	     -1.13764892	     -8.51938370	      0.00000000	     -3.14201335	      5.95778253	      0.99191922	    113.97088329	    -24.54000366	    -22.87478396	      0.00000000	    -23.65358549	     -5.50976099	    -11.78197236	    -17.03823704	    -18.77911538	     -2.14219987	    104.22516919	    100.14051034	      3.41080402	    -31.52802419	     22.80937044	     93.69645907	     78.14056098
     16.39166670	     -3.31137653	     -7.97479258	   -176.71856064	      0.08403061	      1.02837251	      0.16027539	     27.00881389	     -4.70685933	     -4.22672113	     36.44822310	      0.71454139	    -10.84637773	      0.00000000	      1.08536363	      5.21123335	      0.72696130	    117.77728918	    -23.07880230	    -21.93739143	      0.00000000	    -23.41597005	     -4.85061416	    -10.43856722	    -13.43898798	    -20.20851314	     -0.63126654	    102.62159678	    100.63385016	      0.54170681	    -31.52289585	     20.80647427	     91.12628144	     81.33962974
     16.40000000	     -3.22287514	     -7.12324129	   -177.60757290	      0.08637581	      1.02384946	      0.15853715	     26.02477654	     -3.02724168	     -3.31094882	     39.46143442	      2.87771179	    -13.23615713	      0.00000000	      4.91822376	      4.14584137	      0.28042965	    120.86115983	    -21.17094545	    -20.88392091	      0.00000000	    -24.02959077	     -3.91308727	     -7.43287853	    -10.98323030	    -21.85024339	     -0.14781773	    102.40950874	    100.71117970	     -0.55204409	    -30.78589280	     19.61150159	     87.88111479	     81.94666396
     16.40833330	     -2.70776587	     -6.06974327	   -178.32018969	      0.08882519	      1.01980087	      0.15748961	     25.18650152	     -1.18355441	     -2.09477821	     41.88580556	      4.89685163	    -15.57181056	      0.00000000	      9.34563283	      2.92258329	      0.03766984	    123.37008676	    -18.99970201	    -19.41911912	      0.00000000	    -24.02320638	     -2.74169291	     -4.81733554	     -7.88363017	    -23.27563040	      0.78009156	    101.33040623	    100.75807654	     -1.83781760	    -30.16625290	     18.78821971	     84.52207275	     82.92895722
